<?xml version="1.0" standalone="no"?>
<!DOCTYPE svg PUBLIC "-//W3C//DTD SVG 20010904//EN"
 "http://www.w3.org/TR/2001/REC-SVG-20010904/DTD/svg10.dtd">
<svg version="1.0" xmlns="http://www.w3.org/2000/svg"
 width="1000.000000pt" height="1000.000000pt" viewBox="0 0 1000.000000 1000.000000"
 preserveAspectRatio="xMidYMid meet">
<metadata>
Created by potrace 1.14, written by Peter Selinger 2001-2017
</metadata>
<g transform="translate(0.000000,1000.000000) scale(0.100000,-0.100000)"
fill="#000000" stroke="none">
<path d="M1739 9996 c-2 -2 -68 -7 -146 -10 -78 -4 -150 -9 -160 -10 -11 -2
-50 -7 -88 -10 -39 -4 -77 -9 -85 -11 -8 -2 -31 -7 -50 -10 -281 -47 -539
-188 -765 -419 -180 -184 -330 -442 -371 -641 -17 -82 -33 -179 -39 -225 -3
-30 -8 -71 -10 -90 -17 -137 -20 -672 -20 -3585 0 -2910 3 -3447 19 -3545 2
-14 7 -54 11 -88 5 -54 17 -127 39 -237 12 -58 64 -194 105 -274 175 -342 524
-643 861 -745 96 -28 220 -53 313 -62 34 -3 73 -7 87 -10 96 -16 662 -19 3560
-19 2881 0 3495 3 3575 20 11 3 43 7 70 9 149 15 335 61 438 108 289 131 519
336 687 608 138 224 192 435 217 850 10 162 10 6612 1 6790 -10 173 -15 220
-38 360 -27 158 -29 170 -42 194 -6 12 -10 21 -9 21 3 0 -7 29 -32 95 -58 150
-179 331 -312 466 -285 288 -561 413 -995 449 -41 3 -97 9 -125 12 -52 7
-6689 15 -6696 9z"/>
</g>
</svg>
